<svg width="500" height="500" viewBox="0 0 500 500" fill="none" xmlns="http://www.w3.org/2000/svg">
<rect width="500" height="500" fill="#FFD200"/>
<path d="M47.7708 215.39C57.6508 215.39 66.1875 217.253 73.3808 220.98C80.6608 224.62 86.2075 229.863 90.0208 236.71C93.9208 243.557 95.8708 251.617 95.8708 260.89C95.8708 270.163 93.9208 278.223 90.0208 285.07C86.2075 291.83 80.6608 297.03 73.3808 300.67C66.1875 304.223 57.6508 306 47.7708 306H19.5608V215.39H47.7708ZM47.7708 296.25C59.4708 296.25 68.3974 293.173 74.5508 287.02C80.7041 280.78 83.7808 272.07 83.7808 260.89C83.7808 249.623 80.6608 240.827 74.4208 234.5C68.2675 228.173 59.3841 225.01 47.7708 225.01H31.3908V296.25H47.7708ZM123.305 246.33C125.385 242.257 128.332 239.093 132.145 236.84C136.045 234.587 140.768 233.46 146.315 233.46V245.68H143.195C129.935 245.68 123.305 252.873 123.305 267.26V306H111.475V234.76H123.305V246.33ZM191.041 307.17C184.368 307.17 178.301 305.653 172.841 302.62C167.468 299.587 163.221 295.297 160.101 289.75C157.068 284.117 155.551 277.617 155.551 270.25C155.551 262.97 157.111 256.557 160.231 251.01C163.438 245.377 167.771 241.087 173.231 238.14C178.691 235.107 184.801 233.59 191.561 233.59C198.321 233.59 204.431 235.107 209.891 238.14C215.351 241.087 219.641 245.333 222.761 250.88C225.968 256.427 227.571 262.883 227.571 270.25C227.571 277.617 225.924 284.117 222.631 289.75C219.424 295.297 215.048 299.587 209.501 302.62C203.954 305.653 197.801 307.17 191.041 307.17ZM191.041 296.77C195.288 296.77 199.274 295.773 203.001 293.78C206.728 291.787 209.718 288.797 211.971 284.81C214.311 280.823 215.481 275.97 215.481 270.25C215.481 264.53 214.354 259.677 212.101 255.69C209.848 251.703 206.901 248.757 203.261 246.85C199.621 244.857 195.678 243.86 191.431 243.86C187.098 243.86 183.111 244.857 179.471 246.85C175.918 248.757 173.058 251.703 170.891 255.69C168.724 259.677 167.641 264.53 167.641 270.25C167.641 276.057 168.681 280.953 170.761 284.94C172.928 288.927 175.788 291.917 179.341 293.91C182.894 295.817 186.794 296.77 191.041 296.77ZM273.155 242.69C275.582 239.31 278.659 236.667 282.385 234.76C286.199 232.767 290.489 231.77 295.255 231.77C302.622 231.77 308.559 234.24 313.065 239.18C317.572 244.12 319.825 250.967 319.825 259.72C319.825 263.013 319.522 266.22 318.915 269.34C317.529 277.053 315.015 283.77 311.375 289.49C307.735 295.123 303.359 299.457 298.245 302.49C293.132 305.437 287.715 306.91 281.995 306.91C277.229 306.91 273.285 305.957 270.165 304.05C267.132 302.057 265.009 299.37 263.795 295.99L255.865 341.1H227.005L246.115 232.68H274.975L273.155 242.69ZM289.665 269.34C289.839 268.56 289.925 267.52 289.925 266.22C289.925 263.273 289.145 261.02 287.585 259.46C286.025 257.813 283.902 256.99 281.215 256.99C278.095 256.99 275.322 258.073 272.895 260.24C270.555 262.407 269.039 265.44 268.345 269.34C268.172 270.12 268.085 271.16 268.085 272.46C268.085 275.407 268.865 277.703 270.425 279.35C271.985 280.91 274.109 281.69 276.795 281.69C279.915 281.69 282.645 280.607 284.985 278.44C287.412 276.273 288.972 273.24 289.665 269.34ZM361.515 242.69C363.941 239.31 367.018 236.667 370.745 234.76C374.558 232.767 378.848 231.77 383.615 231.77C390.981 231.77 396.918 234.24 401.425 239.18C405.931 244.12 408.185 250.967 408.185 259.72C408.185 263.013 407.881 266.22 407.275 269.34C405.888 277.053 403.375 283.77 399.735 289.49C396.095 295.123 391.718 299.457 386.605 302.49C381.491 305.437 376.075 306.91 370.355 306.91C365.588 306.91 361.645 305.957 358.525 304.05C355.491 302.057 353.368 299.37 352.155 295.99L344.225 341.1H315.365L334.475 232.68H363.335L361.515 242.69ZM378.025 269.34C378.198 268.56 378.285 267.52 378.285 266.22C378.285 263.273 377.505 261.02 375.945 259.46C374.385 257.813 372.261 256.99 369.575 256.99C366.455 256.99 363.681 258.073 361.255 260.24C358.915 262.407 357.398 265.44 356.705 269.34C356.531 270.12 356.445 271.16 356.445 272.46C356.445 275.407 357.225 277.703 358.785 279.35C360.345 280.91 362.468 281.69 365.155 281.69C368.275 281.69 371.005 280.607 373.345 278.44C375.771 276.273 377.331 273.24 378.025 269.34ZM484.844 267.65C484.844 269.903 484.714 272.287 484.454 274.8H427.514C427.947 281.82 430.331 287.323 434.664 291.31C439.084 295.21 444.414 297.16 450.654 297.16C455.767 297.16 460.014 295.99 463.394 293.65C466.861 291.223 469.287 288.017 470.674 284.03H483.414C481.507 290.877 477.694 296.467 471.974 300.8C466.254 305.047 459.147 307.17 450.654 307.17C443.894 307.17 437.827 305.653 432.454 302.62C427.167 299.587 423.007 295.297 419.974 289.75C416.941 284.117 415.424 277.617 415.424 270.25C415.424 262.883 416.897 256.427 419.844 250.88C422.791 245.333 426.907 241.087 432.194 238.14C437.567 235.107 443.721 233.59 450.654 233.59C457.414 233.59 463.394 235.063 468.594 238.01C473.794 240.957 477.781 245.03 480.554 250.23C483.414 255.343 484.844 261.15 484.844 267.65ZM472.624 265.18C472.624 260.673 471.627 256.817 469.634 253.61C467.641 250.317 464.911 247.847 461.444 246.2C458.064 244.467 454.294 243.6 450.134 243.6C444.154 243.6 439.041 245.507 434.794 249.32C430.634 253.133 428.251 258.42 427.644 265.18H472.624Z" fill="#111014"/>
</svg>
